<svg xmlns="http://www.w3.org/2000/svg" x="0px" y="0px"
width="24" height="24"
viewBox="0 0 172 172"
style=" fill:#000000;"><g fill="none" fill-rule="nonzero" stroke="none" stroke-width="1" stroke-linecap="butt" stroke-linejoin="miter" stroke-miterlimit="10" stroke-dasharray="" stroke-dashoffset="0" font-family="none" font-weight="none" font-size="none" text-anchor="none" style="mix-blend-mode: normal"><path d="M0,172v-172h172v172z" fill="none"></path><g fill="#e74c3c"><path d="M71.66667,14.33333l-7.16667,7.16667h-28.66667c-3.956,0 -7.16667,3.21067 -7.16667,7.16667c0,3.956 3.21067,7.16667 7.16667,7.16667h100.33333c3.956,0 7.16667,-3.21067 7.16667,-7.16667c0,-3.956 -3.21067,-7.16667 -7.16667,-7.16667h-28.66667l-7.16667,-7.16667zM35.83333,50.16667v93.16667c0,7.88333 6.45,14.33333 14.33333,14.33333h51.74837l14.40332,-14.33333h-8.81836c-3.956,0 -7.16667,-3.21067 -7.16667,-7.16667v-64.5c0,-2.967 1.80925,-5.51833 4.38118,-6.60677c0.85731,-0.36281 1.79648,-0.5599 2.78548,-0.5599c3.956,0 7.16667,3.21067 7.16667,7.16667v41.4183c3.956,-3.56183 8.97267,-5.58496 14.33333,-5.58496c1.24342,0 2.47138,0.12508 3.66732,0.34993c1.19594,0.22485 2.35985,0.54691 3.49935,0.95183v-58.63509zM64.5,64.5c3.956,0 7.16667,3.21067 7.16667,7.16667v64.5c0,3.956 -3.21067,7.16667 -7.16667,7.16667c-0.989,0 -1.92817,-0.19708 -2.78548,-0.5599c-2.57194,-1.08844 -4.38118,-3.63977 -4.38118,-6.60677v-64.5c0,-3.956 3.21067,-7.16667 7.16667,-7.16667zM129,121.83333c-1.83377,0 -3.66597,0.69853 -5.06706,2.09961c-2.80217,2.795 -2.80217,7.33911 0,10.13411l12.84961,12.84961l-12.84961,12.84961c-2.80217,2.795 -2.80217,7.33911 0,10.13411c2.795,2.80217 7.33194,2.80217 10.13411,0l12.84961,-12.84961l12.84961,12.84961c2.795,2.80217 7.33194,2.80217 10.13411,0c2.80217,-2.795 2.80217,-7.33194 0,-10.13411l-12.84961,-12.84961l12.84961,-12.84961c2.80217,-2.795 2.80217,-7.33194 0,-10.13411c-2.795,-2.80217 -7.33194,-2.80217 -10.13411,0l-12.84961,12.84961l-12.84961,-12.84961c-1.3975,-1.40108 -3.23328,-2.09961 -5.06706,-2.09961z"></path></g></g></svg>